<svg width="187" height="31" viewBox="0 0 187 31" fill="none" xmlns="http://www.w3.org/2000/svg">
<path d="M15.7712 10.5117L21.0498 10.5061L9.93119 26.8086H7.91257C0.696263 26.8086 1.32236 19.3009 1.32236 19.3009H7.20012L7.31886 22.7725L15.7712 10.5117L20.3805 3.82811H0C0 3.82811 1.27378 7.59893 5.38659 7.59893C12.9159 7.59893 14.7349 7.59893 14.7349 7.59893L13.8929 8.70534H3.314C3.314 8.70534 5.05195 12.3971 8.02052 12.3971H14.4714" fill="white"/>
<path d="M34.1472 0.163088V7.95868C34.1472 9.16553 33.8118 10.0951 33.1411 10.7475C32.4811 11.3998 31.5868 11.726 30.4584 11.726C29.2767 11.726 28.3292 11.3835 27.6159 10.6986C26.9026 10.0136 26.546 9.04049 26.546 7.77928H29.2607C29.2607 8.25767 29.3565 8.6219 29.5481 8.87197C29.7398 9.11116 30.0166 9.23076 30.3785 9.23076C30.7085 9.23076 30.964 9.12204 31.145 8.90459C31.326 8.68714 31.4165 8.37183 31.4165 7.95868V0.163088H34.1472Z" fill="white"/>
<path d="M41.6545 11.726C40.6006 11.726 39.6318 11.4759 38.7482 10.9758C37.8752 10.4757 37.1779 9.77982 36.6563 8.88828C36.1453 7.98586 35.8898 6.97472 35.8898 5.85485C35.8898 4.73498 36.1453 3.72927 36.6563 2.83772C37.1779 1.94618 37.8752 1.25034 38.7482 0.750203C39.6318 0.250068 40.6006 0 41.6545 0C42.7084 0 43.6719 0.250068 44.5449 0.750203C45.4285 1.25034 46.1204 1.94618 46.6208 2.83772C47.1318 3.72927 47.3873 4.73498 47.3873 5.85485C47.3873 6.97472 47.1318 7.98586 46.6208 8.88828C46.1098 9.77982 45.4178 10.4757 44.5449 10.9758C43.6719 11.4759 42.7084 11.726 41.6545 11.726ZM41.6545 9.18184C42.5488 9.18184 43.262 8.87741 43.7943 8.26855C44.3373 7.65968 44.6087 6.85512 44.6087 5.85485C44.6087 4.8437 44.3373 4.03914 43.7943 3.44115C43.262 2.83229 42.5488 2.52786 41.6545 2.52786C40.7496 2.52786 40.0257 2.82685 39.4827 3.42484C38.9504 4.02283 38.6843 4.83283 38.6843 5.85485C38.6843 6.86599 38.9504 7.67599 39.4827 8.28485C40.0257 8.88284 40.7496 9.18184 41.6545 9.18184Z" fill="white"/>
<path d="M51.5892 0.163088V7.01277C51.5892 7.69774 51.7542 8.22505 52.0843 8.59472C52.4143 8.96439 52.8987 9.14922 53.5374 9.14922C54.1762 9.14922 54.6659 8.96439 55.0066 8.59472C55.3472 8.22505 55.5176 7.69774 55.5176 7.01277V0.163088H58.2482V6.99646C58.2482 8.01848 58.0353 8.88284 57.6095 9.58955C57.1836 10.2963 56.6088 10.829 55.8848 11.1878C55.1716 11.5466 54.3731 11.726 53.4895 11.726C52.6059 11.726 51.8128 11.552 51.1102 11.2041C50.4182 10.8453 49.8699 10.3126 49.4654 9.60586C49.0608 8.88828 48.8586 8.01848 48.8586 6.99646V0.163088H51.5892Z" fill="white"/>
<path d="M65.8826 11.6118L63.5511 7.29002H62.8964V11.6118H60.1657V0.163088H64.7488C65.6324 0.163088 66.3829 0.320739 67.0004 0.636041C67.6285 0.951344 68.0969 1.38624 68.4056 1.94074C68.7144 2.48437 68.8687 3.09323 68.8687 3.76732C68.8687 4.5284 68.6558 5.20793 68.23 5.80592C67.8148 6.40391 67.1973 6.82794 66.3776 7.078L68.9646 11.6118H65.8826ZM62.8964 5.31666H64.5891C65.0895 5.31666 65.4621 5.19162 65.7069 4.94156C65.9624 4.69149 66.0902 4.33813 66.0902 3.88149C66.0902 3.44659 65.9624 3.1041 65.7069 2.85403C65.4621 2.60397 65.0895 2.47893 64.5891 2.47893H62.8964V5.31666Z" fill="white"/>
<path d="M80.6113 11.6118H77.8806L73.3136 4.55015V11.6118H70.5829V0.163088H73.3136L77.8806 7.2574V0.163088H80.6113V11.6118Z" fill="white"/>
<path d="M85.3214 2.39739V4.71323H88.9782V6.86599H85.3214V9.37754H89.4573V11.6118H82.5907V0.163088H89.4573V2.39739H85.3214Z" fill="white"/>
<path d="M100.843 0.163088L96.9629 7.82821V11.6118H94.2322V7.82821L90.3518 0.163088H93.4498L95.6215 4.95786L97.7773 0.163088H100.843Z" fill="white"/>
<path d="M34.4186 19.4371V21.6714H29.8515V24.0851H33.2689V26.2541H29.8515V30.8858H27.1209V19.4371H34.4186Z" fill="white"/>
<path d="M41.1555 31C40.1015 31 39.1328 30.7499 38.2491 30.2498C37.3762 29.7497 36.6789 29.0538 36.1572 28.1623C35.6462 27.2599 35.3907 26.2487 35.3907 25.1288C35.3907 24.009 35.6462 23.0033 36.1572 22.1117C36.6789 21.2202 37.3762 20.5243 38.2491 20.0242C39.1328 19.5241 40.1015 19.274 41.1555 19.274C42.2094 19.274 43.1729 19.5241 44.0458 20.0242C44.9294 20.5243 45.6214 21.2202 46.1218 22.1117C46.6328 23.0033 46.8883 24.009 46.8883 25.1288C46.8883 26.2487 46.6328 27.2599 46.1218 28.1623C45.6108 29.0538 44.9188 29.7497 44.0458 30.2498C43.1729 30.7499 42.2094 31 41.1555 31ZM41.1555 28.4558C42.0497 28.4558 42.763 28.1514 43.2953 27.5425C43.8382 26.9337 44.1097 26.1291 44.1097 25.1288C44.1097 24.1177 43.8382 23.3131 43.2953 22.7151C42.763 22.1063 42.0497 21.8019 41.1555 21.8019C40.2506 21.8019 39.5266 22.1008 38.9837 22.6988C38.4514 23.2968 38.1853 24.1068 38.1853 25.1288C38.1853 26.14 38.4514 26.95 38.9837 27.5588C39.5266 28.1568 40.2506 28.4558 41.1555 28.4558Z" fill="white"/>
<path d="M54.1243 30.8858L51.7928 26.564H51.1381V30.8858H48.4074V19.4371H52.9905C53.8741 19.4371 54.6246 19.5947 55.2421 19.91C55.8702 20.2253 56.3386 20.6602 56.6474 21.2147C56.9561 21.7584 57.1105 22.3672 57.1105 23.0413C57.1105 23.8024 56.8975 24.4819 56.4717 25.0799C56.0565 25.6779 55.439 26.1019 54.6193 26.352L57.2063 30.8858H54.1243ZM51.1381 24.5907H52.8308C53.3312 24.5907 53.7038 24.4656 53.9486 24.2156C54.2041 23.9655 54.3319 23.6121 54.3319 23.1555C54.3319 22.7206 54.2041 22.3781 53.9486 22.128C53.7038 21.878 53.3312 21.7529 52.8308 21.7529H51.1381V24.5907Z" fill="white"/>
<path d="M74.2505 19.4371L71.3282 30.8858H68.0226L66.2341 23.3512L64.3818 30.8858H61.0762L58.2338 19.4371H61.156L62.7689 27.7709L64.765 19.4371H67.7671L69.6834 27.7709L71.3122 19.4371H74.2505Z" fill="white"/>
<path d="M82.5983 28.8636H78.4145L77.7438 30.8858H74.8854L78.9415 19.4371H82.1033L86.1594 30.8858H83.269L82.5983 28.8636ZM81.8957 26.7108L80.5064 22.5194L79.1331 26.7108H81.8957Z" fill="white"/>
<path d="M93.1107 30.8858L90.7792 26.564H90.1245V30.8858H87.3938V19.4371H91.9769C92.8605 19.4371 93.611 19.5947 94.2285 19.91C94.8566 20.2253 95.325 20.6602 95.6337 21.2147C95.9425 21.7584 96.0968 22.3672 96.0968 23.0413C96.0968 23.8024 95.8839 24.4819 95.4581 25.0799C95.0429 25.6779 94.4254 26.1019 93.6057 26.352L96.1926 30.8858H93.1107ZM90.1245 24.5907H91.8172C92.3175 24.5907 92.6902 24.4656 92.935 24.2156C93.1905 23.9655 93.3183 23.6121 93.3183 23.1555C93.3183 22.7206 93.1905 22.3781 92.935 22.128C92.6902 21.878 92.3175 21.7529 91.8172 21.7529H90.1245V24.5907Z" fill="white"/>
<path d="M102.011 19.4371C103.192 19.4371 104.225 19.6763 105.109 20.1547C105.992 20.6331 106.674 21.3072 107.153 22.177C107.642 23.0359 107.887 24.0307 107.887 25.1615C107.887 26.2813 107.642 27.2762 107.153 28.146C106.674 29.0158 105.987 29.6899 105.093 30.1683C104.209 30.6466 103.182 30.8858 102.011 30.8858H97.811V19.4371H102.011ZM101.835 28.4721C102.868 28.4721 103.672 28.184 104.246 27.6078C104.821 27.0315 105.109 26.2161 105.109 25.1615C105.109 24.1068 104.821 23.286 104.246 22.6988C103.672 22.1117 102.868 21.8182 101.835 21.8182H100.542V28.4721H101.835Z" fill="white"/>
<path d="M116.853 31C116.034 31 115.299 30.8641 114.65 30.5923C114 30.3205 113.479 29.9182 113.085 29.3854C112.702 28.8527 112.499 28.2112 112.478 27.461H115.384C115.427 27.885 115.571 28.2112 115.815 28.4395C116.06 28.657 116.38 28.7657 116.774 28.7657C117.178 28.7657 117.498 28.6733 117.732 28.4884C117.966 28.2927 118.083 28.0264 118.083 27.6893C118.083 27.4066 117.987 27.1729 117.796 26.988C117.615 26.8032 117.386 26.651 117.109 26.5314C116.843 26.4118 116.46 26.2759 115.959 26.1237C115.235 25.8954 114.644 25.667 114.187 25.4387C113.729 25.2104 113.335 24.8733 113.005 24.4276C112.675 23.9818 112.51 23.4001 112.51 22.6825C112.51 21.617 112.888 20.7853 113.644 20.1873C114.4 19.5784 115.384 19.274 116.598 19.274C117.833 19.274 118.828 19.5784 119.584 20.1873C120.34 20.7853 120.745 21.6225 120.798 22.6988H117.843C117.822 22.3292 117.689 22.041 117.444 21.8345C117.199 21.617 116.885 21.5083 116.502 21.5083C116.172 21.5083 115.906 21.6007 115.704 21.7855C115.501 21.9595 115.4 22.215 115.4 22.5521C115.4 22.9217 115.571 23.2098 115.911 23.4164C116.252 23.623 116.784 23.8459 117.508 24.0851C118.232 24.3351 118.818 24.5743 119.265 24.8027C119.723 25.031 120.116 25.3626 120.446 25.7975C120.776 26.2324 120.941 26.7923 120.941 27.4773C120.941 28.1297 120.776 28.7222 120.446 29.255C120.127 29.7877 119.659 30.2117 119.041 30.527C118.424 30.8423 117.694 31 116.853 31Z" fill="white"/>
<path d="M125.353 21.6714V23.9872H129.009V26.14H125.353V28.6515H129.489V30.8858H122.622V19.4371H129.489V21.6714H125.353Z" fill="white"/>
<path d="M136.978 30.8858L134.647 26.564H133.992V30.8858H131.261V19.4371H135.844C136.728 19.4371 137.479 19.5947 138.096 19.91C138.724 20.2253 139.192 20.6602 139.501 21.2147C139.81 21.7584 139.964 22.3672 139.964 23.0413C139.964 23.8024 139.751 24.4819 139.326 25.0799C138.91 25.6779 138.293 26.1019 137.473 26.352L140.06 30.8858H136.978ZM133.992 24.5907H135.685C136.185 24.5907 136.558 24.4656 136.802 24.2156C137.058 23.9655 137.186 23.6121 137.186 23.1555C137.186 22.7206 137.058 22.3781 136.802 22.128C136.558 21.878 136.185 21.7529 135.685 21.7529H133.992V24.5907Z" fill="white"/>
<path d="M152.202 19.4371L148.226 30.8858H144.808L140.832 19.4371H143.738L146.517 28.0807L149.312 19.4371H152.202Z" fill="white"/>
<path d="M156.074 19.4371V30.8858H153.343V19.4371H156.074Z" fill="white"/>
<path d="M157.59 25.1452C157.59 24.0144 157.829 23.0087 158.308 22.128C158.787 21.2365 159.453 20.5461 160.304 20.0568C161.167 19.5567 162.141 19.3066 163.227 19.3066C164.557 19.3066 165.697 19.6654 166.644 20.383C167.591 21.1006 168.225 22.0791 168.544 23.3186H165.542C165.319 22.8402 164.999 22.476 164.584 22.2259C164.179 21.9758 163.716 21.8508 163.195 21.8508C162.354 21.8508 161.672 22.1498 161.151 22.7478C160.629 23.3458 160.368 24.1449 160.368 25.1452C160.368 26.1454 160.629 26.9446 161.151 27.5425C161.672 28.1405 162.354 28.4395 163.195 28.4395C163.716 28.4395 164.179 28.3145 164.584 28.0644C164.999 27.8144 165.319 27.4501 165.542 26.9717H168.544C168.225 28.2112 167.591 29.1897 166.644 29.9073C165.697 30.614 164.557 30.9674 163.227 30.9674C162.141 30.9674 161.167 30.7228 160.304 30.2335C159.453 29.7334 158.787 29.0429 158.308 28.1623C157.829 27.2816 157.59 26.2759 157.59 25.1452Z" fill="white"/>
<path d="M172.947 21.6714V23.9872H176.604V26.14H172.947V28.6515H177.083V30.8858H170.217V19.4371H177.083V21.6714H172.947Z" fill="white"/>
<path d="M182.912 31C182.092 31 181.358 30.8641 180.708 30.5923C180.059 30.3205 179.537 29.9182 179.143 29.3854C178.76 28.8527 178.558 28.2112 178.537 27.461H181.443C181.485 27.885 181.629 28.2112 181.874 28.4395C182.119 28.657 182.438 28.7657 182.832 28.7657C183.237 28.7657 183.556 28.6733 183.79 28.4884C184.024 28.2927 184.142 28.0264 184.142 27.6893C184.142 27.4066 184.046 27.1729 183.854 26.988C183.673 26.8032 183.444 26.651 183.167 26.5314C182.901 26.4118 182.518 26.2759 182.018 26.1237C181.294 25.8954 180.703 25.667 180.245 25.4387C179.787 25.2104 179.394 24.8733 179.063 24.4276C178.733 23.9818 178.568 23.4001 178.568 22.6825C178.568 21.617 178.946 20.7853 179.702 20.1873C180.458 19.5784 181.443 19.274 182.656 19.274C183.891 19.274 184.887 19.5784 185.643 20.1873C186.398 20.7853 186.803 21.6225 186.856 22.6988H183.902C183.881 22.3292 183.748 22.041 183.503 21.8345C183.258 21.617 182.944 21.5083 182.561 21.5083C182.231 21.5083 181.964 21.6007 181.762 21.7855C181.56 21.9595 181.459 22.215 181.459 22.5521C181.459 22.9217 181.629 23.2098 181.97 23.4164C182.31 23.623 182.843 23.8459 183.567 24.0851C184.291 24.3351 184.876 24.5743 185.323 24.8027C185.781 25.031 186.175 25.3626 186.505 25.7975C186.835 26.2324 187 26.7923 187 27.4773C187 28.1297 186.835 28.7222 186.505 29.255C186.186 29.7877 185.717 30.2117 185.1 30.527C184.482 30.8423 183.753 31 182.912 31Z" fill="white"/>
</svg>
