<svg width="24" height="24" viewBox="0 0 24 24" fill="none" xmlns="http://www.w3.org/2000/svg">
<path d="M12.5912 23.2584L12.5802 23.2604L12.5092 23.2954L12.4892 23.2994L12.4752 23.2954L12.4042 23.2604C12.3936 23.2571 12.3856 23.2588 12.3802 23.2654L12.3762 23.2754L12.3592 23.7034L12.3642 23.7234L12.3742 23.7364L12.4782 23.8104L12.4932 23.8144L12.5052 23.8104L12.6092 23.7364L12.6212 23.7204L12.6252 23.7034L12.6082 23.2764C12.6056 23.2658 12.5999 23.2598 12.5912 23.2584ZM12.8562 23.1454L12.8432 23.1474L12.6582 23.2404L12.6482 23.2504L12.6452 23.2614L12.6632 23.6914L12.6682 23.7034L12.6762 23.7104L12.8772 23.8034C12.8899 23.8068 12.8996 23.8041 12.9062 23.7954L12.9102 23.7814L12.8762 23.1674C12.8729 23.1554 12.8662 23.1481 12.8562 23.1454ZM12.1412 23.1474C12.1368 23.1448 12.1315 23.1439 12.1265 23.145C12.1215 23.1461 12.1171 23.1491 12.1142 23.1534L12.1082 23.1674L12.0742 23.7814C12.0749 23.7934 12.0806 23.8014 12.0912 23.8054L12.1062 23.8034L12.3072 23.7104L12.3172 23.7024L12.3212 23.6914L12.3382 23.2614L12.3352 23.2494L12.3252 23.2394L12.1412 23.1474Z" fill="#57AF82"/>
<path d="M16.434 3C16.752 3.00006 17.0653 3.07593 17.3481 3.22132C17.6309 3.36671 17.8749 3.57743 18.06 3.836L18.149 3.971L20.573 8.011C20.8119 8.40941 20.955 8.85786 20.991 9.321L21 9.554V19C21.0002 19.5046 20.8096 19.9906 20.4665 20.3605C20.1234 20.7305 19.6532 20.9572 19.15 20.995L19 21H5C4.49542 21.0002 4.00943 20.8096 3.63945 20.4665C3.26947 20.1234 3.04284 19.6532 3.005 19.15L3 19V9.554C3.00003 9.08888 3.10821 8.63013 3.316 8.214L3.428 8.01L5.85 3.971C6.0136 3.69815 6.23994 3.46826 6.51021 3.30043C6.78048 3.13259 7.08689 3.03166 7.404 3.006L7.566 3H16.434ZM16.434 5H13V9H18.834L16.434 5ZM11 5H7.566L5.166 9H11V5Z" fill="#57AF82"/>
</svg>
