<svg width="24" height="24" viewBox="0 0 24 24" fill="none" xmlns="http://www.w3.org/2000/svg">
<path d="M12.5 7C12.5 5.89 13.39 5 14.5 5H18C19.1 5 20 5.9 20 7V9.16C18.84 9.57 18 10.67 18 11.97V14H12.5V7ZM6 11.96V14H11.5V7C11.5 5.89 10.61 5 9.5 5H6C4.9 5 4 5.9 4 7V9.15C5.16 9.56 6 10.67 6 11.96ZM20.66 10.03C19.68 10.19 19 11.12 19 12.12V15H5V12C5 11.4696 4.78929 10.9609 4.41421 10.5858C4.03914 10.2107 3.53043 10 3 10C2.46957 10 1.96086 10.2107 1.58579 10.5858C1.21071 10.9609 1 11.4696 1 12V17C1 18.1 1.9 19 3 19V21H5V19H19V21H21V19C22.1 19 23 18.1 23 17V12C23 10.79 21.91 9.82 20.66 10.03Z" fill="#57AF82"/>
</svg>
