<svg width="21" height="21" viewBox="0 0 21 21" fill="none" xmlns="http://www.w3.org/2000/svg">
<path fill-rule="evenodd" clip-rule="evenodd" d="M20.8333 10.4167C20.8333 16.1698 16.1698 20.8333 10.4167 20.8333C4.66354 20.8333 0 16.1698 0 10.4167C0 4.66354 4.66354 0 10.4167 0C16.1698 0 20.8333 4.66354 20.8333 10.4167ZM14.3229 10.4167C14.3229 10.6239 14.2406 10.8226 14.0941 10.9691C13.9476 11.1156 13.7489 11.1979 13.5417 11.1979H7.29167C7.08447 11.1979 6.88575 11.1156 6.73924 10.9691C6.59273 10.8226 6.51042 10.6239 6.51042 10.4167C6.51042 10.2095 6.59273 10.0108 6.73924 9.86424C6.88575 9.71773 7.08447 9.63542 7.29167 9.63542H13.5417C13.7489 9.63542 13.9476 9.71773 14.0941 9.86424C14.2406 10.0108 14.3229 10.2095 14.3229 10.4167Z" fill="#367D5E"/>
</svg>
